<svg viewBox="0 0 355.06 284.41" xmlns="http://www.w3.org/2000/svg"><path d="m20 263c44.78.85 92.88 1.37 144 1.41 67.86 0 86.44-1 108.56-13.63 31.25-17.84 59.43-54.39 62.32-100.06.43-6.76 3-61.66-41-100-5.06-4.41-51.08-43.24-106.16-26.58-43.81 13.25-85.79 59.43-76 107.64 6.82 33.42 38.4 67.13 76.4 66.34 35.77-.75 72.76-32 69.62-60.25-1.65-15.68-16.22-34.87-36.26-35.87-19.41-.92-32.32 15.89-33.69 17.72" fill="none" stroke="#e135a1" stroke-linecap="round" stroke-miterlimit="10" stroke-width="40"/></svg>